<?xml version="1.0" encoding="utf-8"?>
<!-- Generator: Adobe Illustrator 27.3.1, SVG Export Plug-In . SVG Version: 6.00 Build 0)  -->
<svg version="1.1" id="Layer_1" xmlns="http://www.w3.org/2000/svg" xmlns:xlink="http://www.w3.org/1999/xlink" x="0px" y="0px"
	 viewBox="0 0 1080 1080" style="enable-background:new 0 0 1080 1080;" xml:space="preserve">
<style type="text/css">
	.st0{fill:#D45932;}
</style>
<g>
	<polygon class="st0" points="471.21,687.21 329.58,716.04 497.94,1039.06 720.19,1041.85 771.27,906.64 549.03,903.86 	"/>
	<polygon class="st0" points="396.43,571.78 285.59,479.03 138.01,812.05 274.41,987.54 411.96,943.19 275.57,767.7 	"/>
	<polygon class="st0" points="211.53,468.99 440.06,441.34 443.46,296.84 91.09,389.11 38.92,605.16 159.37,685.05 	"/>
	<polygon class="st0" points="405.14,232.69 569.25,394.11 684.33,306.7 392.51,88.72 191.07,182.64 203.7,326.61 	"/>
	<polygon class="st0" points="686.71,465.68 826.82,501.16 815.28,137.08 616.26,38.15 511.57,137.78 710.59,236.72 	"/>
	<polygon class="st0" points="704,602.13 763.62,733.79 1041.08,497.77 994.32,280.5 851.15,260.77 897.89,478.06 	"/>
	<polygon class="st0" points="825.99,774.96 608.09,700.73 542.33,829.42 899.84,899.2 1040.58,727.17 966.74,602.95 	"/>
</g>
</svg>
